# xmcd
#
# Track frame offsets: 
#        150
#        16940
#        35340
#        53407
#        68397
#        86347
#        105492
#        121725
#        137540
#        155660
#        170220
#        185970
#        217052
#
# Disc length: 2918 seconds
#
# Revision: 4
# Processed by: cddbd v1.5.2PL0 Copyright (c) Steve Scherf et al.
# Submitted via: ExactAudioCopyFreeDBPlugin 1.0
#
DISCID=a80b640d
DTITLE=Jessica Andrews - Who I am
DYEAR=2000
DGENRE=Country
TTITLE0=Now I know
TTITLE1=Every Time
TTITLE2=I Don't Like Anyone
TTITLE3=Karma
TTITLE4=Helplessly, Hopelessly
TTITLE5=Who I am
TTITLE6=These Wings
TTITLE7=Never Had It So Good
TTITLE8=Make Me Love You
TTITLE9=Wishing Well
TTITLE10=Good Friend To Me
TTITLE11=Show Me Heaven
TTITLE12=DataTrack 13
EXTD=
EXTT0=
EXTT1=
EXTT2=
EXTT3=
EXTT4=
EXTT5=
EXTT6=
EXTT7=
EXTT8=
EXTT9=
EXTT10=
EXTT11=
EXTT12=
PLAYORDER=
